<?xml version="1.0" standalone="no"?>
<!DOCTYPE svg PUBLIC "-//W3C//DTD SVG 20010904//EN"
 "http://www.w3.org/TR/2001/REC-SVG-20010904/DTD/svg10.dtd">
<svg version="1.0" xmlns="http://www.w3.org/2000/svg"
 width="361.000000pt" height="361.000000pt" viewBox="0 0 361.000000 361.000000"
 preserveAspectRatio="xMidYMid meet">
<metadata>
Created by potrace 1.14, written by Peter Selinger 2001-2017
</metadata>
<g transform="translate(0.000000,361.000000) scale(0.100000,-0.100000)"
fill="#000000" stroke="none">
<path d="M1663 3598 c-86 -7 -99 -9 -203 -28 -616 -112 -1155 -578 -1358
-1175 -38 -110 -50 -155 -72 -267 -25 -125 -34 -387 -18 -523 14 -113 17 -131
33 -200 64 -279 185 -524 380 -765 37 -46 180 -186 230 -225 28 -22 52 -43 55
-46 14 -17 205 -136 275 -171 268 -135 543 -198 845 -193 160 3 198 7 344 37
457 93 866 370 1131 768 97 145 221 423 242 540 2 14 8 41 13 60 10 37 24 128
35 220 9 67 9 280 1 335 -3 22 -8 65 -11 95 -12 103 -59 283 -105 400 -229
580 -745 1004 -1356 1116 -129 24 -327 33 -461 22z m312 -522 c34 -6 120 -23
150 -30 171 -37 430 -184 576 -326 320 -315 454 -780 349 -1216 -119 -498
-527 -879 -1035 -967 -184 -32 -431 -13 -620 49 -80 26 -246 108 -317 156
-277 189 -487 513 -538 828 -6 41 -14 88 -16 105 -7 43 -6 202 1 260 28 226
90 397 212 584 68 104 228 266 333 338 180 123 402 206 590 220 36 3 66 6 68
8 5 5 214 -3 247 -9z"/>
<path d="M1766 2813 c-1 -2 -21 -5 -44 -8 -108 -13 -244 -91 -317 -182 -89
-109 -127 -223 -121 -365 7 -173 88 -319 231 -415 92 -62 164 -85 275 -89 159
-5 286 44 396 153 63 63 129 175 140 238 2 17 7 36 9 44 11 30 5 170 -10 224
-51 194 -212 350 -399 387 -55 11 -154 19 -160 13z"/>
<path d="M1797 1654 c-1 -1 -36 -5 -77 -8 -97 -8 -120 -12 -205 -38 -152 -45
-306 -136 -424 -251 -52 -50 -161 -188 -161 -203 0 -4 -6 -15 -14 -23 -8 -9
-17 -28 -21 -42 -6 -23 3 -36 67 -102 191 -196 437 -320 698 -352 69 -9 243
-9 290 -1 19 4 61 11 93 17 70 12 212 61 282 97 129 66 279 182 360 277 l49
57 -25 46 c-116 222 -362 413 -624 486 -71 20 -278 49 -288 40z"/>
</g>
</svg>
